<svg width="194" height="32" viewBox="0 0 194 32" fill="none" xmlns="http://www.w3.org/2000/svg">
<path fill-rule="evenodd" clip-rule="evenodd" d="M34 8.00589C34 9.80079 34.0229 10.0188 34.2179 10.0797C34.3377 10.117 34.7579 10.2255 35.1518 10.3208L35.8677 10.4939V14.9519V19.4098L34.9339 19.6475L34 19.885V21.9425V24H40.4319H46.8636L47.3113 23.6377C47.5574 23.4383 47.7868 23.2398 47.821 23.1963C47.8553 23.1528 48.3315 22.7276 48.8794 22.2516C49.4272 21.7755 49.8942 21.3393 49.9169 21.2825C49.9399 21.2256 50.0379 21.1791 50.1348 21.1791C50.281 21.1791 50.3113 20.731 50.3113 18.5665V15.954L49.8444 15.5819C49.5876 15.3772 49.2273 15.0794 49.0437 14.9199L48.71 14.6302L49.5107 13.938L50.3113 13.2458V11.0334C50.3113 9.81651 50.2692 8.8206 50.2179 8.82019C50.1666 8.81992 49.9564 8.65081 49.751 8.44434C49.5455 8.23788 48.8343 7.60345 48.1704 7.03457L46.9632 5.99997H40.4817H34V8.00589ZM55.2164 6.49994C54.8812 6.77504 54.4922 7.12255 54.352 7.27233C54.2118 7.42224 53.6934 7.87654 53.2002 8.28221L52.3035 9.01954V14.965C52.3035 18.235 52.3456 20.9106 52.3969 20.9106C52.4482 20.9107 52.6584 21.0684 52.8638 21.261C53.0693 21.4536 53.5735 21.8879 53.9844 22.226C54.3953 22.564 54.9556 23.0441 55.2296 23.2927C55.5035 23.5414 55.7954 23.8022 55.878 23.8724C55.9652 23.9464 57.5569 24 59.6639 24H63.2994L63.7471 23.6377C63.9932 23.4383 64.2226 23.2401 64.2568 23.197C64.291 23.1537 64.8514 22.6699 65.5019 22.1217C66.1525 21.5735 66.7549 21.0508 66.8405 20.9601C66.9602 20.8332 66.9961 19.4367 66.9961 14.89V8.98448L65.7979 7.92879C65.1389 7.34822 64.4804 6.78257 64.3349 6.67201C64.1892 6.56146 63.9615 6.36494 63.8286 6.23545C63.6095 6.0216 63.2302 5.99997 59.7065 5.99997H55.8257L55.2164 6.49994ZM69.1128 8.00589C69.1128 9.80079 69.1357 10.0188 69.3307 10.0797C69.4505 10.117 69.8708 10.2255 70.2646 10.3208L70.9805 10.4939V14.9519V19.4098L70.0467 19.6475L69.1128 19.885V21.9425V24H73.6608H78.2088L78.1744 21.958L78.1401 19.916L77.1751 19.6594L76.2101 19.4027V18.6118V17.8209H79.145C81.3175 17.8209 82.1251 17.7772 82.2536 17.653C82.349 17.5607 82.4992 17.4237 82.5871 17.3484C82.6751 17.2733 83.1953 16.8203 83.7432 16.3415C84.291 15.8628 84.8436 15.3801 84.9711 15.269C85.5657 14.7511 85.5486 14.8521 85.5486 11.8537V8.99536L85.1554 8.6731C84.9391 8.49579 84.701 8.28772 84.6262 8.21075C84.5514 8.13378 83.9516 7.60492 83.2932 7.03537L82.096 5.99997H75.6045H69.1128V8.00589ZM87.1673 8.00589C87.1673 9.80079 87.1902 10.0188 87.3852 10.0797C87.505 10.117 87.9252 10.2255 88.3191 10.3208L89.035 10.4939V14.9442V19.3947L88.1323 19.6488L87.2296 19.903L87.1952 21.9515L87.1608 24H91.4598H95.7588V21.9494V19.8988L95.1362 19.6604L94.5136 19.4218V18.5794C94.5136 17.7847 94.5365 17.7189 94.9183 17.4151C95.1409 17.2379 95.5106 16.9092 95.7398 16.6846C95.9692 16.4599 96.2176 16.2761 96.2919 16.2761C96.4425 16.2761 98 19.0813 98 19.3523C98 19.4468 97.7759 19.6039 97.5019 19.7015L97.0039 19.8788V21.9394V24H101.175H105.346V21.9438V19.8876L104.476 19.6442C103.734 19.4363 103.577 19.3393 103.401 18.9803C102.977 18.1103 102.584 17.3363 102.349 16.9066C102.215 16.6623 101.89 16.0276 101.626 15.4962C101.362 14.9646 100.946 14.1538 100.702 13.6942L100.259 12.8585L101.682 11.6457C102.465 10.9786 103.22 10.4328 103.361 10.4328C103.502 10.4328 103.852 10.3759 104.139 10.3063C104.427 10.2366 104.815 10.1448 105.004 10.1022L105.346 10.0247V8.01234V5.99997H101.113H96.8794V7.99663V9.99328L97.4387 10.2238C97.8817 10.4063 97.9659 10.4883 97.8434 10.6184C97.7583 10.7089 96.9744 11.4307 96.1012 12.2227L94.5136 13.6629V12.0756V10.4883L95.0428 10.2803L95.572 10.0723L95.6063 8.03612L95.6407 5.99997H91.404H87.1673V8.00589ZM106.993 7.96694C107.032 10.1827 106.952 10.0204 108.148 10.3239L108.895 10.5134L108.928 14.8638C108.946 17.295 108.912 19.267 108.849 19.3342C108.788 19.4003 108.353 19.5591 107.883 19.6871L107.027 19.9197L106.993 21.9599L106.959 24H111.195H115.432V21.9494V19.8988L114.809 19.6604L114.187 19.4218V14.7258V10.0298H116.241H118.296V14.7047V19.3795L117.673 19.6633L117.051 19.947V21.9735V24H121.222H125.393V21.9425V19.885L124.459 19.6475L123.525 19.4098V14.9519V10.4939L124.241 10.3208C124.635 10.2255 125.055 10.117 125.175 10.0797C125.37 10.0188 125.393 9.80079 125.393 8.00589V5.99997H116.176H106.958L106.993 7.96694ZM127.385 8.01234V10.0247L127.728 10.1116C127.916 10.1594 128.35 10.2732 128.693 10.3646L129.315 10.5306L129.348 14.9629L129.381 19.3953L128.414 19.6492L127.447 19.903L127.413 21.9515L127.379 24H131.93H136.481L136.447 21.9598L136.412 19.9197L135.977 19.8023C135.737 19.7379 135.331 19.626 135.074 19.5537L134.607 19.4225V18.6216V17.8209H137.533C139.26 17.8209 140.459 17.7696 140.459 17.6955C140.459 17.6266 140.557 17.5362 140.677 17.4944C140.797 17.4527 141.063 17.2501 141.268 17.044C141.474 16.8381 142.04 16.3285 142.527 15.9115C143.951 14.6921 143.821 15.0971 143.821 11.865V9.01806L143.292 8.52655C143.001 8.25628 142.23 7.57833 141.58 7.02006L140.397 6.00494L133.891 6.00239L127.385 5.99997V8.01234ZM148.615 6.33337C148.409 6.51646 148.185 6.71607 148.117 6.77692C148.048 6.83778 147.46 7.33721 146.809 7.88661C146.159 8.43601 145.585 8.9466 145.535 9.02115C145.485 9.0957 145.443 11.761 145.442 14.9442L145.44 20.7316L145.812 21.0897C146.017 21.2867 146.216 21.4477 146.254 21.4477C146.292 21.4477 146.454 21.5837 146.614 21.75C146.775 21.9163 147.374 22.4439 147.947 22.9228C148.52 23.4015 149.007 23.8399 149.03 23.8967C149.053 23.9535 150.724 24 152.743 24H156.414L156.935 23.6122C157.221 23.3989 157.651 23.0374 157.891 22.8089C158.131 22.5804 158.759 22.0447 159.286 21.6183L160.246 20.8433L160.247 14.9328L160.248 9.02236L159.412 8.317C158.952 7.92892 158.156 7.24895 157.642 6.80594L156.708 6.00037H152.848L148.988 6.00024L148.615 6.33337ZM164.802 6.63091C164.391 6.97788 163.981 7.33963 163.892 7.43473C163.802 7.52997 163.395 7.88567 162.986 8.22512L162.242 8.84249L162.277 10.6115L162.311 12.3806L164.705 12.4171L167.099 12.4535L167.173 12.0813C167.214 11.8764 167.299 11.57 167.363 11.4004C167.426 11.2307 167.479 10.9737 167.479 10.8295C167.479 10.5819 167.575 10.5671 169.194 10.5671C171.177 10.5671 171.463 10.6769 171.463 11.4388C171.463 12.0042 171.024 12.3753 170.218 12.4904C167.269 12.9118 165.441 13.2271 165.097 13.3738C164.934 13.443 164.465 13.7766 164.054 14.1153C163.644 14.4539 163.013 14.9512 162.654 15.2203L162 15.7096V19.8549V24H169.346H176.693V20.7761V17.5522H174.336H171.979L171.771 18.3246C171.657 18.7493 171.506 19.1726 171.436 19.2649C171.343 19.3863 170.761 19.4328 169.331 19.4328H167.354V18.6299C167.354 17.6586 167.49 17.5321 168.786 17.2987C170.85 16.927 172.563 16.6302 173.113 16.5486C173.519 16.4886 173.892 16.3071 174.296 15.9734C174.621 15.7052 175.223 15.2118 175.634 14.8769C176.045 14.5419 176.451 14.1951 176.537 14.1061C176.651 13.9878 176.692 13.2499 176.692 11.3491L176.692 8.7537L175.688 7.88057C175.136 7.40034 174.421 6.78163 174.101 6.50558L173.518 6.00373L169.533 6.00198L165.549 6.0001L164.802 6.63091ZM185.641 7.25594C184.547 8.50828 182.554 10.7504 180.073 13.5224L178.69 15.0671L178.687 16.7127L178.685 18.3582H182.738H186.792L186.754 18.9848L186.716 19.6115L185.813 19.8723L184.911 20.1331V22.0666V24H189.455H194V22.0666V20.1331L193.097 19.8723L192.195 19.6115L192.157 18.9848L192.119 18.3582H193.059H194V16.5447V14.7313H193.066H192.132V10.3656V5.99997L189.424 6.0134L186.716 6.02697L185.641 7.25594ZM44.8016 10.8283C45.0287 11.0326 45.0817 11.2177 45.0817 11.8059C45.0817 12.4542 45.0425 12.5628 44.7132 12.8255C44.3785 13.0925 44.1959 13.1194 42.7209 13.1194H41.0973V11.8433V10.5671L42.8093 10.5716C44.2978 10.5755 44.558 10.609 44.8016 10.8283ZM61.4596 10.7841L61.7665 11.001V14.923V18.845L61.398 19.1389C61.073 19.3981 60.8724 19.4328 59.6977 19.4328C58.4619 19.4328 58.3359 19.4081 57.9494 19.0901L57.5331 18.7475V14.9358V11.1239L57.8612 10.8456C58.1513 10.5994 58.3605 10.5671 59.671 10.5671C60.8253 10.5671 61.2205 10.6151 61.4596 10.7841ZM79.9178 10.7763C80.1561 10.9563 80.1946 11.1082 80.1946 11.8686C80.1946 13.1935 80.0962 13.2537 77.9343 13.2537H76.2101V11.9104V10.5671H77.9255C79.2768 10.5671 79.6999 10.6116 79.9178 10.7763ZM138.311 10.8283C138.545 11.0385 138.591 11.2147 138.591 11.8887C138.591 12.6018 138.553 12.7297 138.263 12.9752C137.969 13.2254 137.766 13.2537 136.271 13.2537H134.607V11.9104V10.5671L136.319 10.5716C137.808 10.5755 138.068 10.609 138.311 10.8283ZM154.596 10.7841L154.903 11.001V14.9104V18.8197L154.572 19.1263C154.271 19.405 154.118 19.4328 152.879 19.4328C151.702 19.4328 151.468 19.3952 151.155 19.155L150.794 18.8772V14.973C150.794 10.1953 150.624 10.5671 152.809 10.5671C153.962 10.5671 154.357 10.6151 154.596 10.7841ZM186.778 13.2537V14.7313H185.258H183.737L184.372 14.0933C186.172 12.284 186.689 11.7761 186.732 11.7761C186.757 11.7761 186.778 12.441 186.778 13.2537ZM44.7536 16.6217C45.0574 16.8795 45.0817 16.9769 45.0817 17.936C45.0817 18.937 45.0695 18.9797 44.7201 19.2023C44.428 19.3885 44.0449 19.4328 42.7279 19.4328H41.0973V17.888V16.3433H42.7614C44.2564 16.3433 44.4589 16.3716 44.7536 16.6217Z" fill="#002155"/>
<path d="M12.2596 2.23923C12.3039 2.20486 12.348 2.17001 12.3916 2.1347C12.8097 2.48031 13.3118 2.81986 13.834 3.1395C14.8283 3.74806 16.0566 4.37867 17.3447 4.94854C18.6337 5.51877 20.0018 6.03666 21.2787 6.41378C22.1461 6.66998 23.0027 6.87071 23.7797 6.97094V19.3439C23.7797 20.1831 23.2461 21.2895 22.1718 22.5828C21.1279 23.8394 19.705 25.1173 18.2263 26.279C16.7532 27.4362 15.2552 28.4544 14.0835 29.1941C13.498 29.5638 12.9988 29.8608 12.6299 30.0687C12.5374 30.1208 12.4545 30.1665 12.3816 30.2058C12.3083 30.1681 12.2253 30.1244 12.1329 30.0747C11.7648 29.8766 11.2669 29.5929 10.6835 29.2366C9.51575 28.5235 8.02388 27.5306 6.55761 26.3662C5.08617 25.1977 3.67139 23.8806 2.63291 22.5234C1.58261 21.1507 1 19.845 1 18.6788V6.96313C1.73208 6.85996 2.55081 6.66175 3.38466 6.413C4.64615 6.03668 6.02224 5.51994 7.32872 4.95083C8.63429 4.38211 9.88989 3.75258 10.9071 3.14514C11.4152 2.84166 11.8765 2.53621 12.2596 2.23923Z" fill="#002155" stroke="#002155" stroke-width="2" stroke-linejoin="round"/>
<path d="M15.8892 22.0986C14.6655 23.0414 13.4261 23.8641 12.4506 24.4688C11.4475 23.8615 10.1792 23.0274 8.96868 22.0689L8.9679 22.0683C7.55114 20.948 6.64338 19.9943 6.10451 19.2697C5.64166 18.6473 5.53292 18.3053 5.5076 18.2257C5.50074 18.2042 5.5 18.2018 5.5 18.2183V10.4877C7.82472 9.79321 10.4097 8.72303 12.4823 7.56135C14.5627 8.74282 17.1574 9.81416 19.5 10.5084V18.5513C19.4973 18.5561 19.4945 18.561 19.4916 18.5661C19.4071 18.713 19.2479 18.951 18.9759 19.2767C18.4328 19.9271 17.4809 20.8781 15.8919 22.0965L15.8892 22.0986ZM19.5523 18.4499C19.5539 18.4454 19.5549 18.4431 19.555 18.4431C19.5551 18.4431 19.5543 18.4453 19.5523 18.4499Z" stroke="white" stroke-width="3" stroke-linejoin="round"/>
</svg>
