<?xml version="1.0" encoding="utf-8"?><svg xmlns="http://www.w3.org/2000/svg" xmlns:xlink="http://www.w3.org/1999/xlink"><symbol fill="none" viewBox="0 0 32 32" id="inst" xmlns="http://www.w3.org/2000/svg"><path d="M10.4 2.667h11.2a7.739 7.739 0 0 1 7.733 7.733v11.2a7.734 7.734 0 0 1-7.733 7.733H10.4A7.739 7.739 0 0 1 2.667 21.6V10.4A7.733 7.733 0 0 1 10.4 2.667Zm-.267 2.666a4.8 4.8 0 0 0-4.8 4.8v11.734c0 2.653 2.147 4.8 4.8 4.8h11.734a4.8 4.8 0 0 0 4.8-4.8V10.133c0-2.653-2.147-4.8-4.8-4.8H10.133Zm12.867 2a1.667 1.667 0 1 1 0 3.334 1.667 1.667 0 0 1 0-3.334Zm-7 2a6.667 6.667 0 1 1 0 13.334 6.667 6.667 0 0 1 0-13.334ZM16 12a4 4 0 1 0 0 8 4 4 0 0 0 0-8Z" fill="currentColor"/></symbol><symbol fill="none" viewBox="0 0 21 21" id="quote" xmlns="http://www.w3.org/2000/svg"><path d="m5.248 0 5.084 19.024-5.248 1.394L0 1.394 5.248 0Zm10.496 0 5.084 19.024-5.248 1.394-5.084-19.024L15.744 0Z" fill="#8090AA"/></symbol><symbol fill="none" viewBox="0 0 32 32" id="vk" xmlns="http://www.w3.org/2000/svg"><path d="M28.672 24.508h-3.043c-1.15 0-1.497-.932-3.56-2.996-1.802-1.737-2.564-1.953-3.02-1.953-.63 0-.802.173-.802 1.041v2.736c0 .74-.24 1.174-2.174 1.174A11.868 11.868 0 0 1 6.8 18.95 24.24 24.24 0 0 1 2 8.872c0-.456.173-.87 1.043-.87h3.04c.781 0 1.062.349 1.369 1.153 1.476 4.344 3.995 8.123 5.017 8.123.392 0 .563-.174.563-1.151v-4.475c-.13-2.041-1.213-2.213-1.213-2.952a.75.75 0 0 1 .78-.697h4.778c.654 0 .87.325.87 1.106v6.04c0 .653.28.868.477.868.392 0 .693-.215 1.412-.933a25.014 25.014 0 0 0 3.736-6.213 1.31 1.31 0 0 1 1.324-.867h3.041c.912 0 1.106.456.912 1.107a37.955 37.955 0 0 1-4.082 7.016c-.328.5-.459.76 0 1.347.301.456 1.368 1.346 2.084 2.193a13.538 13.538 0 0 1 2.562 3.56c.262.848-.173 1.281-1.041 1.281Z" fill="currentColor"/></symbol></svg>